<mxfile host="app.diagrams.net" modified="2023-02-25T03:24:53.570Z" agent="5.0 (Linux; Android 12; SM-A035M) AppleWebKit/537.36 (KHTML, like Gecko) Chrome/107.0.0.0 Mobile Safari/537.36" etag="8veNF11lSEhkc3jNjSaT" version="20.8.23" type="github">
  <diagram id="R2lEEEUBdFMjLlhIrx00" name="Page-1">
    <mxGraphModel dx="748" dy="181" grid="1" gridSize="10" guides="1" tooltips="1" connect="1" arrows="1" fold="1" page="1" pageScale="1" pageWidth="850" pageHeight="1100" math="0" shadow="0" extFonts="Permanent Marker^https://fonts.googleapis.com/css?family=Permanent+Marker">
      <root>
        <mxCell id="0" />
        <mxCell id="1" parent="0" />
        <mxCell id="iToEJ3CbW-RjeYXbpDTx-12" style="edgeStyle=none;rounded=0;orthogonalLoop=1;jettySize=auto;html=1;" parent="1" source="iToEJ3CbW-RjeYXbpDTx-1" edge="1">
          <mxGeometry relative="1" as="geometry">
            <mxPoint x="270" y="100" as="targetPoint" />
          </mxGeometry>
        </mxCell>
        <mxCell id="iToEJ3CbW-RjeYXbpDTx-1" value="Libro" style="rounded=1;arcSize=10;whiteSpace=wrap;html=1;align=center;" parent="1" vertex="1">
          <mxGeometry x="210" y="100" width="100" height="40" as="geometry" />
        </mxCell>
        <mxCell id="iToEJ3CbW-RjeYXbpDTx-2" value="Formato" style="rounded=1;arcSize=10;whiteSpace=wrap;html=1;align=center;fillColor=#d5e8d4;strokeColor=#82b366;" parent="1" vertex="1">
          <mxGeometry x="320" y="660" width="100" height="40" as="geometry" />
        </mxCell>
        <mxCell id="iToEJ3CbW-RjeYXbpDTx-3" value="Genero" style="rounded=1;arcSize=10;whiteSpace=wrap;html=1;align=center;" parent="1" vertex="1">
          <mxGeometry x="100" y="240" width="100" height="40" as="geometry" />
        </mxCell>
        <mxCell id="iToEJ3CbW-RjeYXbpDTx-4" value="Moneda" style="rounded=1;arcSize=10;whiteSpace=wrap;html=1;align=center;fillColor=#d5e8d4;strokeColor=#82b366;" parent="1" vertex="1">
          <mxGeometry x="520" y="480" width="100" height="40" as="geometry" />
        </mxCell>
        <mxCell id="iToEJ3CbW-RjeYXbpDTx-5" value="LibroDetalle" style="rounded=1;arcSize=10;whiteSpace=wrap;html=1;align=center;" parent="1" vertex="1">
          <mxGeometry x="320" y="340" width="100" height="40" as="geometry" />
        </mxCell>
        <mxCell id="iToEJ3CbW-RjeYXbpDTx-7" value="" style="fontSize=12;html=1;endArrow=ERmandOne;startArrow=ERmandOne;rounded=0;exitX=0.25;exitY=0;exitDx=0;exitDy=0;" parent="1" source="iToEJ3CbW-RjeYXbpDTx-1" target="iToEJ3CbW-RjeYXbpDTx-71" edge="1">
          <mxGeometry width="100" height="100" relative="1" as="geometry">
            <mxPoint x="370" y="290" as="sourcePoint" />
            <mxPoint x="215.35533905932743" y="74.14213562373095" as="targetPoint" />
          </mxGeometry>
        </mxCell>
        <mxCell id="iToEJ3CbW-RjeYXbpDTx-8" value="Titulo" style="ellipse;whiteSpace=wrap;html=1;align=center;" parent="1" vertex="1">
          <mxGeometry x="250" y="20" width="100" height="40" as="geometry" />
        </mxCell>
        <mxCell id="iToEJ3CbW-RjeYXbpDTx-9" value="Autor" style="ellipse;whiteSpace=wrap;html=1;align=center;" parent="1" vertex="1">
          <mxGeometry x="330" y="70" width="100" height="40" as="geometry" />
        </mxCell>
        <mxCell id="iToEJ3CbW-RjeYXbpDTx-10" value="FechaPublicacion" style="ellipse;whiteSpace=wrap;html=1;align=center;fillColor=#fff2cc;strokeColor=#d6b656;" parent="1" vertex="1">
          <mxGeometry x="470" y="280" width="110" height="40" as="geometry" />
        </mxCell>
        <mxCell id="iToEJ3CbW-RjeYXbpDTx-11" value="" style="fontSize=12;html=1;endArrow=ERmandOne;startArrow=ERmandOne;rounded=0;entryX=0.5;entryY=1;entryDx=0;entryDy=0;" parent="1" source="iToEJ3CbW-RjeYXbpDTx-1" target="iToEJ3CbW-RjeYXbpDTx-8" edge="1">
          <mxGeometry width="100" height="100" relative="1" as="geometry">
            <mxPoint x="270" y="110" as="sourcePoint" />
            <mxPoint x="225" y="74" as="targetPoint" />
          </mxGeometry>
        </mxCell>
        <mxCell id="iToEJ3CbW-RjeYXbpDTx-13" value="" style="fontSize=12;html=1;endArrow=ERmandOne;startArrow=ERmandOne;rounded=0;" parent="1" target="iToEJ3CbW-RjeYXbpDTx-9" edge="1">
          <mxGeometry width="100" height="100" relative="1" as="geometry">
            <mxPoint x="300" y="110" as="sourcePoint" />
            <mxPoint x="310" y="70" as="targetPoint" />
          </mxGeometry>
        </mxCell>
        <mxCell id="iToEJ3CbW-RjeYXbpDTx-14" value="Precio" style="ellipse;whiteSpace=wrap;html=1;align=center;fillColor=#fff2cc;strokeColor=#d6b656;" parent="1" vertex="1">
          <mxGeometry x="510" y="560" width="100" height="40" as="geometry" />
        </mxCell>
        <mxCell id="iToEJ3CbW-RjeYXbpDTx-15" value="" style="fontSize=12;html=1;endArrow=ERmandOne;startArrow=ERmandOne;rounded=0;" parent="1" source="iToEJ3CbW-RjeYXbpDTx-48" target="iToEJ3CbW-RjeYXbpDTx-14" edge="1">
          <mxGeometry width="100" height="100" relative="1" as="geometry">
            <mxPoint x="270" y="110" as="sourcePoint" />
            <mxPoint x="225" y="84" as="targetPoint" />
          </mxGeometry>
        </mxCell>
        <mxCell id="iToEJ3CbW-RjeYXbpDTx-17" value="" style="fontSize=12;html=1;endArrow=ERmandOne;startArrow=ERmandOne;rounded=0;exitX=0.5;exitY=1;exitDx=0;exitDy=0;" parent="1" source="iToEJ3CbW-RjeYXbpDTx-1" target="iToEJ3CbW-RjeYXbpDTx-3" edge="1">
          <mxGeometry width="100" height="100" relative="1" as="geometry">
            <mxPoint x="220" y="130" as="sourcePoint" />
            <mxPoint x="160" y="130" as="targetPoint" />
          </mxGeometry>
        </mxCell>
        <mxCell id="iToEJ3CbW-RjeYXbpDTx-18" value="ISBN" style="ellipse;whiteSpace=wrap;html=1;align=center;" parent="1" vertex="1">
          <mxGeometry x="330" y="140" width="100" height="40" as="geometry" />
        </mxCell>
        <mxCell id="iToEJ3CbW-RjeYXbpDTx-19" value="" style="fontSize=12;html=1;endArrow=ERmandOne;startArrow=ERmandOne;rounded=0;" parent="1" source="iToEJ3CbW-RjeYXbpDTx-1" target="iToEJ3CbW-RjeYXbpDTx-18" edge="1">
          <mxGeometry width="100" height="100" relative="1" as="geometry">
            <mxPoint x="320" y="122" as="sourcePoint" />
            <mxPoint x="344" y="118" as="targetPoint" />
          </mxGeometry>
        </mxCell>
        <mxCell id="iToEJ3CbW-RjeYXbpDTx-20" value="Id" style="ellipse;whiteSpace=wrap;html=1;align=center;fillColor=#fff2cc;strokeColor=#d6b656;" parent="1" vertex="1">
          <mxGeometry x="10" y="180" width="100" height="40" as="geometry" />
        </mxCell>
        <mxCell id="iToEJ3CbW-RjeYXbpDTx-21" value="Nombre" style="ellipse;whiteSpace=wrap;html=1;align=center;fillColor=#fff2cc;strokeColor=#d6b656;" parent="1" vertex="1">
          <mxGeometry x="10" y="300" width="100" height="40" as="geometry" />
        </mxCell>
        <mxCell id="iToEJ3CbW-RjeYXbpDTx-22" value="" style="fontSize=12;html=1;endArrow=ERmandOne;startArrow=ERmandOne;rounded=0;entryX=0;entryY=0.25;entryDx=0;entryDy=0;" parent="1" source="iToEJ3CbW-RjeYXbpDTx-20" target="iToEJ3CbW-RjeYXbpDTx-3" edge="1">
          <mxGeometry width="100" height="100" relative="1" as="geometry">
            <mxPoint x="270" y="150" as="sourcePoint" />
            <mxPoint x="178" y="250" as="targetPoint" />
          </mxGeometry>
        </mxCell>
        <mxCell id="iToEJ3CbW-RjeYXbpDTx-24" value="" style="fontSize=12;html=1;endArrow=ERmandOne;startArrow=ERmandOne;rounded=0;exitX=0;exitY=0.75;exitDx=0;exitDy=0;" parent="1" source="iToEJ3CbW-RjeYXbpDTx-3" target="iToEJ3CbW-RjeYXbpDTx-21" edge="1">
          <mxGeometry width="100" height="100" relative="1" as="geometry">
            <mxPoint x="103" y="228" as="sourcePoint" />
            <mxPoint x="133" y="250" as="targetPoint" />
          </mxGeometry>
        </mxCell>
        <mxCell id="iToEJ3CbW-RjeYXbpDTx-25" value="" style="fontSize=12;html=1;endArrow=ERmandOne;startArrow=ERmandOne;rounded=0;" parent="1" source="iToEJ3CbW-RjeYXbpDTx-1" target="iToEJ3CbW-RjeYXbpDTx-5" edge="1">
          <mxGeometry width="100" height="100" relative="1" as="geometry">
            <mxPoint x="270" y="150" as="sourcePoint" />
            <mxPoint x="178" y="250" as="targetPoint" />
          </mxGeometry>
        </mxCell>
        <mxCell id="iToEJ3CbW-RjeYXbpDTx-26" value="" style="fontSize=12;html=1;endArrow=ERmandOne;startArrow=ERmandOne;rounded=0;entryX=1;entryY=0.5;entryDx=0;entryDy=0;" parent="1" source="iToEJ3CbW-RjeYXbpDTx-10" target="iToEJ3CbW-RjeYXbpDTx-5" edge="1">
          <mxGeometry width="100" height="100" relative="1" as="geometry">
            <mxPoint x="360" y="247" as="sourcePoint" />
            <mxPoint x="392" y="257" as="targetPoint" />
          </mxGeometry>
        </mxCell>
        <mxCell id="iToEJ3CbW-RjeYXbpDTx-27" value="Id" style="ellipse;whiteSpace=wrap;html=1;align=center;fillColor=#fff2cc;strokeColor=#d6b656;" parent="1" vertex="1">
          <mxGeometry x="350" y="270" width="110" height="40" as="geometry" />
        </mxCell>
        <mxCell id="iToEJ3CbW-RjeYXbpDTx-28" value="ISBN" style="ellipse;whiteSpace=wrap;html=1;align=center;fillColor=#fff2cc;strokeColor=#d6b656;" parent="1" vertex="1">
          <mxGeometry x="180" y="340" width="110" height="40" as="geometry" />
        </mxCell>
        <mxCell id="iToEJ3CbW-RjeYXbpDTx-29" value="Resumen" style="ellipse;whiteSpace=wrap;html=1;align=center;fillColor=#fff2cc;strokeColor=#d6b656;" parent="1" vertex="1">
          <mxGeometry x="380" y="420" width="110" height="40" as="geometry" />
        </mxCell>
        <mxCell id="iToEJ3CbW-RjeYXbpDTx-30" value="ResumenLink" style="ellipse;whiteSpace=wrap;html=1;align=center;fillColor=#fff2cc;strokeColor=#d6b656;" parent="1" vertex="1">
          <mxGeometry x="245" y="410" width="110" height="40" as="geometry" />
        </mxCell>
        <mxCell id="iToEJ3CbW-RjeYXbpDTx-31" value="" style="fontSize=12;html=1;endArrow=ERmandOne;startArrow=ERmandOne;rounded=0;" parent="1" source="iToEJ3CbW-RjeYXbpDTx-27" target="iToEJ3CbW-RjeYXbpDTx-5" edge="1">
          <mxGeometry width="100" height="100" relative="1" as="geometry">
            <mxPoint x="485" y="370" as="sourcePoint" />
            <mxPoint x="430" y="370" as="targetPoint" />
          </mxGeometry>
        </mxCell>
        <mxCell id="iToEJ3CbW-RjeYXbpDTx-32" value="" style="fontSize=12;html=1;endArrow=ERmandOne;startArrow=ERmandOne;rounded=0;" parent="1" source="iToEJ3CbW-RjeYXbpDTx-5" target="iToEJ3CbW-RjeYXbpDTx-28" edge="1">
          <mxGeometry width="100" height="100" relative="1" as="geometry">
            <mxPoint x="407" y="329" as="sourcePoint" />
            <mxPoint x="393" y="350" as="targetPoint" />
          </mxGeometry>
        </mxCell>
        <mxCell id="iToEJ3CbW-RjeYXbpDTx-34" value="" style="fontSize=12;html=1;endArrow=ERmandOne;startArrow=ERmandOne;rounded=0;" parent="1" source="iToEJ3CbW-RjeYXbpDTx-29" target="iToEJ3CbW-RjeYXbpDTx-5" edge="1">
          <mxGeometry width="100" height="100" relative="1" as="geometry">
            <mxPoint x="485" y="370" as="sourcePoint" />
            <mxPoint x="430" y="370" as="targetPoint" />
          </mxGeometry>
        </mxCell>
        <mxCell id="iToEJ3CbW-RjeYXbpDTx-35" value="" style="fontSize=12;html=1;endArrow=ERmandOne;startArrow=ERmandOne;rounded=0;" parent="1" source="iToEJ3CbW-RjeYXbpDTx-5" target="iToEJ3CbW-RjeYXbpDTx-30" edge="1">
          <mxGeometry width="100" height="100" relative="1" as="geometry">
            <mxPoint x="448" y="413" as="sourcePoint" />
            <mxPoint x="412" y="390" as="targetPoint" />
          </mxGeometry>
        </mxCell>
        <mxCell id="iToEJ3CbW-RjeYXbpDTx-38" value="Id" style="ellipse;whiteSpace=wrap;html=1;align=center;fillColor=#fff2cc;strokeColor=#d6b656;" parent="1" vertex="1">
          <mxGeometry x="450" y="620" width="110" height="40" as="geometry" />
        </mxCell>
        <mxCell id="iToEJ3CbW-RjeYXbpDTx-39" value="" style="fontSize=12;html=1;endArrow=ERmandOne;startArrow=ERmandOne;rounded=0;" parent="1" source="iToEJ3CbW-RjeYXbpDTx-38" target="iToEJ3CbW-RjeYXbpDTx-2" edge="1">
          <mxGeometry width="100" height="100" relative="1" as="geometry">
            <mxPoint x="610" y="470" as="sourcePoint" />
            <mxPoint x="430" y="470" as="targetPoint" />
          </mxGeometry>
        </mxCell>
        <mxCell id="iToEJ3CbW-RjeYXbpDTx-40" value="Nombre" style="ellipse;whiteSpace=wrap;html=1;align=center;fillColor=#fff2cc;strokeColor=#d6b656;" parent="1" vertex="1">
          <mxGeometry x="450" y="710" width="110" height="40" as="geometry" />
        </mxCell>
        <mxCell id="iToEJ3CbW-RjeYXbpDTx-41" value="" style="fontSize=12;html=1;endArrow=ERmandOne;startArrow=ERmandOne;rounded=0;entryX=0.9;entryY=1.025;entryDx=0;entryDy=0;entryPerimeter=0;" parent="1" source="iToEJ3CbW-RjeYXbpDTx-40" target="iToEJ3CbW-RjeYXbpDTx-2" edge="1">
          <mxGeometry width="100" height="100" relative="1" as="geometry">
            <mxPoint x="728" y="427" as="sourcePoint" />
            <mxPoint x="692" y="450" as="targetPoint" />
          </mxGeometry>
        </mxCell>
        <mxCell id="iToEJ3CbW-RjeYXbpDTx-44" value="Edicion" style="ellipse;whiteSpace=wrap;html=1;align=center;" parent="1" vertex="1">
          <mxGeometry x="210" y="270" width="110" height="40" as="geometry" />
        </mxCell>
        <mxCell id="iToEJ3CbW-RjeYXbpDTx-45" value="Editorial" style="ellipse;whiteSpace=wrap;html=1;align=center;fillColor=#fff2cc;strokeColor=#d6b656;" parent="1" vertex="1">
          <mxGeometry x="470" y="340" width="110" height="40" as="geometry" />
        </mxCell>
        <mxCell id="iToEJ3CbW-RjeYXbpDTx-46" value="" style="fontSize=12;html=1;endArrow=ERmandOne;startArrow=ERmandOne;rounded=0;" parent="1" source="iToEJ3CbW-RjeYXbpDTx-45" target="iToEJ3CbW-RjeYXbpDTx-5" edge="1">
          <mxGeometry width="100" height="100" relative="1" as="geometry">
            <mxPoint x="505" y="327" as="sourcePoint" />
            <mxPoint x="430" y="370" as="targetPoint" />
          </mxGeometry>
        </mxCell>
        <mxCell id="iToEJ3CbW-RjeYXbpDTx-47" value="" style="fontSize=12;html=1;endArrow=ERmandOne;startArrow=ERmandOne;rounded=0;" parent="1" source="iToEJ3CbW-RjeYXbpDTx-44" target="iToEJ3CbW-RjeYXbpDTx-5" edge="1">
          <mxGeometry width="100" height="100" relative="1" as="geometry">
            <mxPoint x="405" y="320" as="sourcePoint" />
            <mxPoint x="390" y="350" as="targetPoint" />
          </mxGeometry>
        </mxCell>
        <mxCell id="iToEJ3CbW-RjeYXbpDTx-48" value="LibroDetalleFormato" style="shape=rhombus;perimeter=rhombusPerimeter;whiteSpace=wrap;html=1;align=center;fillColor=#e1d5e7;strokeColor=#9673a6;" parent="1" vertex="1">
          <mxGeometry x="273.75" y="490" width="192.5" height="90" as="geometry" />
        </mxCell>
        <mxCell id="iToEJ3CbW-RjeYXbpDTx-49" value="" style="fontSize=12;html=1;endArrow=ERmandOne;startArrow=ERmandOne;rounded=0;entryX=0.5;entryY=1;entryDx=0;entryDy=0;" parent="1" source="iToEJ3CbW-RjeYXbpDTx-48" target="iToEJ3CbW-RjeYXbpDTx-5" edge="1">
          <mxGeometry width="100" height="100" relative="1" as="geometry">
            <mxPoint x="430" y="431" as="sourcePoint" />
            <mxPoint x="396" y="390" as="targetPoint" />
          </mxGeometry>
        </mxCell>
        <mxCell id="iToEJ3CbW-RjeYXbpDTx-50" value="" style="fontSize=12;html=1;endArrow=ERmandOne;startArrow=ERmandOne;rounded=0;" parent="1" source="iToEJ3CbW-RjeYXbpDTx-48" target="iToEJ3CbW-RjeYXbpDTx-2" edge="1">
          <mxGeometry width="100" height="100" relative="1" as="geometry">
            <mxPoint x="380" y="500" as="sourcePoint" />
            <mxPoint x="380" y="390" as="targetPoint" />
          </mxGeometry>
        </mxCell>
        <mxCell id="iToEJ3CbW-RjeYXbpDTx-52" value="" style="fontSize=12;html=1;endArrow=ERmandOne;startArrow=ERmandOne;rounded=0;" parent="1" source="iToEJ3CbW-RjeYXbpDTx-48" target="iToEJ3CbW-RjeYXbpDTx-4" edge="1">
          <mxGeometry width="100" height="100" relative="1" as="geometry">
            <mxPoint x="380" y="500" as="sourcePoint" />
            <mxPoint x="380" y="390" as="targetPoint" />
          </mxGeometry>
        </mxCell>
        <mxCell id="iToEJ3CbW-RjeYXbpDTx-54" value="Codigo" style="ellipse;whiteSpace=wrap;html=1;align=center;fillColor=#fff2cc;strokeColor=#d6b656;" parent="1" vertex="1">
          <mxGeometry x="650" y="430" width="100" height="40" as="geometry" />
        </mxCell>
        <mxCell id="iToEJ3CbW-RjeYXbpDTx-55" value="Simbolo" style="ellipse;whiteSpace=wrap;html=1;align=center;fillColor=#fff2cc;strokeColor=#d6b656;" parent="1" vertex="1">
          <mxGeometry x="660" y="500" width="100" height="40" as="geometry" />
        </mxCell>
        <mxCell id="iToEJ3CbW-RjeYXbpDTx-57" value="" style="fontSize=12;html=1;endArrow=ERmandOne;startArrow=ERmandOne;rounded=0;entryX=1;entryY=0.5;entryDx=0;entryDy=0;" parent="1" source="iToEJ3CbW-RjeYXbpDTx-54" target="iToEJ3CbW-RjeYXbpDTx-4" edge="1">
          <mxGeometry width="100" height="100" relative="1" as="geometry">
            <mxPoint x="664" y="457" as="sourcePoint" />
            <mxPoint x="611" y="490" as="targetPoint" />
          </mxGeometry>
        </mxCell>
        <mxCell id="iToEJ3CbW-RjeYXbpDTx-58" value="" style="fontSize=12;html=1;endArrow=ERmandOne;startArrow=ERmandOne;rounded=0;" parent="1" source="iToEJ3CbW-RjeYXbpDTx-55" target="iToEJ3CbW-RjeYXbpDTx-4" edge="1">
          <mxGeometry width="100" height="100" relative="1" as="geometry">
            <mxPoint x="670" y="510" as="sourcePoint" />
            <mxPoint x="630" y="510" as="targetPoint" />
          </mxGeometry>
        </mxCell>
        <mxCell id="iToEJ3CbW-RjeYXbpDTx-59" value="Descripcion" style="ellipse;whiteSpace=wrap;html=1;align=center;fillColor=#fff2cc;strokeColor=#d6b656;" parent="1" vertex="1">
          <mxGeometry x="660" y="570" width="100" height="40" as="geometry" />
        </mxCell>
        <mxCell id="iToEJ3CbW-RjeYXbpDTx-60" value="" style="fontSize=12;html=1;endArrow=ERmandOne;startArrow=ERmandOne;rounded=0;exitX=0;exitY=0;exitDx=0;exitDy=0;entryX=1;entryY=1;entryDx=0;entryDy=0;" parent="1" source="iToEJ3CbW-RjeYXbpDTx-59" target="iToEJ3CbW-RjeYXbpDTx-4" edge="1">
          <mxGeometry width="100" height="100" relative="1" as="geometry">
            <mxPoint x="673" y="524" as="sourcePoint" />
            <mxPoint x="630" y="517" as="targetPoint" />
          </mxGeometry>
        </mxCell>
        <mxCell id="iToEJ3CbW-RjeYXbpDTx-61" value="Libro" style="rounded=1;arcSize=10;whiteSpace=wrap;html=1;align=center;fillColor=#d5e8d4;strokeColor=#82b366;" parent="1" vertex="1">
          <mxGeometry x="210" y="100" width="100" height="40" as="geometry" />
        </mxCell>
        <mxCell id="iToEJ3CbW-RjeYXbpDTx-62" value="Genero" style="rounded=1;arcSize=10;whiteSpace=wrap;html=1;align=center;fillColor=#d5e8d4;strokeColor=#82b366;" parent="1" vertex="1">
          <mxGeometry x="100" y="240" width="100" height="40" as="geometry" />
        </mxCell>
        <mxCell id="iToEJ3CbW-RjeYXbpDTx-63" value="LibroDetalle" style="rounded=1;arcSize=10;whiteSpace=wrap;html=1;align=center;fillColor=#d5e8d4;strokeColor=#82b366;" parent="1" vertex="1">
          <mxGeometry x="320" y="340" width="100" height="40" as="geometry" />
        </mxCell>
        <mxCell id="iToEJ3CbW-RjeYXbpDTx-68" value="Autor" style="ellipse;whiteSpace=wrap;html=1;align=center;" parent="1" vertex="1">
          <mxGeometry x="331.87" y="70" width="100" height="40" as="geometry" />
        </mxCell>
        <mxCell id="iToEJ3CbW-RjeYXbpDTx-69" value="Titulo" style="ellipse;whiteSpace=wrap;html=1;align=center;" parent="1" vertex="1">
          <mxGeometry x="251.87" y="20" width="100" height="40" as="geometry" />
        </mxCell>
        <mxCell id="iToEJ3CbW-RjeYXbpDTx-71" value="Id" style="ellipse;whiteSpace=wrap;html=1;align=center;fillColor=#fff2cc;strokeColor=#d6b656;" parent="1" vertex="1">
          <mxGeometry x="130" y="40" width="100" height="40" as="geometry" />
        </mxCell>
        <mxCell id="iToEJ3CbW-RjeYXbpDTx-72" value="Autor" style="ellipse;whiteSpace=wrap;html=1;align=center;fillColor=#fff2cc;strokeColor=#d6b656;" parent="1" vertex="1">
          <mxGeometry x="331.87" y="70" width="100" height="40" as="geometry" />
        </mxCell>
        <mxCell id="iToEJ3CbW-RjeYXbpDTx-73" value="Titulo" style="ellipse;whiteSpace=wrap;html=1;align=center;fillColor=#fff2cc;strokeColor=#d6b656;" parent="1" vertex="1">
          <mxGeometry x="251.87" y="20" width="100" height="40" as="geometry" />
        </mxCell>
        <mxCell id="iToEJ3CbW-RjeYXbpDTx-74" value="ISBN" style="ellipse;whiteSpace=wrap;html=1;align=center;fillColor=#fff2cc;strokeColor=#d6b656;" parent="1" vertex="1">
          <mxGeometry x="330" y="140" width="100" height="40" as="geometry" />
        </mxCell>
        <mxCell id="iToEJ3CbW-RjeYXbpDTx-75" value="Edicion" style="ellipse;whiteSpace=wrap;html=1;align=center;fillColor=#fff2cc;strokeColor=#d6b656;" parent="1" vertex="1">
          <mxGeometry x="210" y="270" width="110" height="40" as="geometry" />
        </mxCell>
        <mxCell id="iToEJ3CbW-RjeYXbpDTx-76" value="&lt;font style=&quot;font-size: 24px;&quot;&gt;Tienda Libro&lt;/font&gt;" style="text;html=1;strokeColor=none;fillColor=none;align=center;verticalAlign=middle;whiteSpace=wrap;rounded=0;fontSize=20;fontFamily=Architects Daughter;" parent="1" vertex="1">
          <mxGeometry x="560" width="220" height="70" as="geometry" />
        </mxCell>
        <mxCell id="iToEJ3CbW-RjeYXbpDTx-78" value="Id" style="ellipse;whiteSpace=wrap;html=1;align=center;fillColor=#fff2cc;strokeColor=#d6b656;" parent="1" vertex="1">
          <mxGeometry x="540" y="420" width="100" height="40" as="geometry" />
        </mxCell>
        <mxCell id="iToEJ3CbW-RjeYXbpDTx-79" value="" style="fontSize=12;html=1;endArrow=ERmandOne;startArrow=ERmandOne;rounded=0;entryX=0.5;entryY=0;entryDx=0;entryDy=0;" parent="1" source="iToEJ3CbW-RjeYXbpDTx-78" target="iToEJ3CbW-RjeYXbpDTx-4" edge="1">
          <mxGeometry width="100" height="100" relative="1" as="geometry">
            <mxPoint x="683" y="477" as="sourcePoint" />
            <mxPoint x="630" y="510" as="targetPoint" />
          </mxGeometry>
        </mxCell>
      </root>
    </mxGraphModel>
  </diagram>
</mxfile>
